<svg xmlns="http://www.w3.org/2000/svg" viewBox="0 0 64 64" width="64" height="64">
  <defs>
    <radialGradient id="g" cx="50%" cy="40%" r="70%">
      <stop offset="0%" stop-color="#a5b4fc"/>
      <stop offset="55%" stop-color="#6366f1"/>
      <stop offset="100%" stop-color="#312e81"/>
    </radialGradient>
  </defs>
  <circle cx="32" cy="32" r="30" fill="url(#g)"/>
  <ellipse cx="32" cy="32" rx="30" ry="11" fill="none" stroke="#22d3ee" stroke-width="2.5" opacity="0.85" transform="rotate(-22 32 32)"/>
  <path d="M32 18c-7 0-12 4.5-12 11 0 4.6 2.8 7.4 6.7 9.2 1.2.6 1.8 1.1 1.8 2.3V42h7v-1.3c0-1.2.6-1.7 1.8-2.3C41 36.4 44 33.6 44 29c0-6.5-5-11-12-11z" fill="#fff"/>
  <rect x="29" y="45" width="6" height="3.5" rx="1.2" fill="#fff"/>
</svg>
